<svg xmlns="http://www.w3.org/2000/svg" width="600" height="140" viewBox="0 0 600 140">
<g>
<path d="M 405.69 103.80 C394.96,109.16 381.05,103.68 375.68,92.00 C372.91,85.98 372.96,75.32 375.78,68.91 C378.22,63.33 383.68,58.63 389.63,56.96 C395.73,55.26 405.20,56.23 408.62,58.92 C410.10,60.08 411.57,60.76 411.90,60.44 C412.23,60.11 412.73,55.27 413.00,49.67 L 413.50 39.50 L 417.00 39.24 C417.13,39.23 417.25,39.22 417.38,39.21 C419.07,39.08 420.30,38.99 421.19,39.49 C423.57,40.82 423.56,46.40 423.80,66.82 C423.96,81.07 423.73,94.92 423.28,97.61 C422.51,102.22 422.26,102.53 418.98,103.02 C417.07,103.31 414.28,103.11 412.80,102.57 C410.66,101.80 409.17,102.06 405.69,103.80 ZM 248.62 103.51 C245.02,105.39 236.39,106.22 232.71,105.04 C231.17,104.55 227.71,102.47 225.01,100.41 C218.08,95.12 215.62,89.14 216.21,79.04 C216.68,71.28 218.08,67.45 222.16,62.86 C228.42,55.80 240.46,53.87 249.55,58.47 L 254.43 60.95 L 256.61 58.90 C258.12,57.48 259.81,56.96 262.14,57.18 C265.23,57.47 265.52,57.80 265.81,61.25 C265.98,63.31 266.54,65.00 267.06,65.00 C267.61,65.00 268.00,72.06 268.00,82.00 C268.00,92.67 267.63,99.00 267.00,99.00 C266.45,99.00 266.00,99.64 266.00,100.42 C266.00,102.50 259.61,104.40 257.11,103.06 C254.41,101.61 252.03,101.74 248.62,103.51 ZM 530.50 103.60 C526.65,105.65 517.49,106.25 513.03,104.75 C511.12,104.11 507.46,101.54 504.88,99.04 C494.64,89.11 494.49,72.00 504.56,62.31 C511.31,55.81 522.64,53.91 530.29,58.01 C533.70,59.84 534.31,59.89 536.87,58.57 C540.05,56.92 544.47,57.07 546.29,58.89 C547.90,60.49 548.65,97.92 547.13,100.76 C545.92,103.01 540.14,104.54 538.61,103.01 C537.15,101.55 533.94,101.78 530.50,103.60 ZM 350.11 104.04 C349.78,104.06 347.02,104.66 344.00,105.37 C331.78,108.27 318.19,101.11 314.43,89.80 C312.44,83.81 312.87,74.08 315.34,69.31 C319.27,61.71 329.21,56.00 338.50,56.00 C345.11,56.00 353.27,59.44 357.34,63.95 C362.04,69.16 362.85,70.87 363.59,77.21 C364.61,85.84 364.25,86.00 343.43,86.00 C325.47,86.00 324.93,86.13 327.03,90.06 C329.88,95.39 340.53,96.64 347.64,92.47 L 351.95 89.94 L 356.01 92.50 C358.85,94.30 359.83,95.48 359.28,96.45 C358.45,97.93 351.14,103.98 350.11,104.04 ZM 474.17 103.45 C469.59,105.76 458.61,106.29 453.05,104.47 C447.70,102.72 441.45,96.99 438.90,91.50 C436.73,86.82 436.42,77.68 438.22,71.65 C440.93,62.61 453.23,55.34 464.19,56.30 C475.42,57.28 483.67,63.73 486.63,73.82 C488.51,80.24 487.81,83.74 484.41,85.04 C483.01,85.57 474.70,86.00 465.93,86.00 C455.32,86.00 450.00,86.36 450.00,87.07 C450.00,94.17 463.24,97.57 471.47,92.59 L 475.44 90.18 L 479.22 92.11 C481.30,93.17 483.00,94.62 483.00,95.33 C483.00,97.05 478.31,101.36 474.17,103.45 ZM 194.34 104.92 C190.19,106.07 180.74,106.20 177.50,105.15 C173.42,103.82 167.02,99.45 167.03,98.00 C167.04,97.18 167.85,95.45 168.85,94.16 C170.63,91.84 170.69,91.83 176.00,93.41 C185.40,96.20 194.00,94.77 194.00,90.42 C194.00,88.55 191.38,87.49 181.64,85.42 C172.45,83.47 167.60,79.96 166.03,74.10 C163.93,66.31 168.06,59.91 176.84,57.36 C183.15,55.52 190.18,56.11 196.76,59.01 C202.32,61.47 203.13,63.63 199.62,66.65 C197.04,68.87 196.73,68.91 193.33,67.49 C188.08,65.30 183.35,65.59 180.44,68.29 C176.62,71.83 178.81,73.72 189.44,76.04 C199.56,78.25 201.92,79.52 204.88,84.31 C209.37,91.56 203.89,102.27 194.34,104.92 ZM 294.96 101.07 C294.21,102.47 292.92,102.98 290.21,102.92 C287.99,102.87 286.56,102.91 285.65,102.24 C284.00,101.03 284.00,97.56 284.00,87.28 C284.00,86.81 284.00,86.33 284.00,85.83 L 284.00 69.83 L 281.00 68.69 C278.52,67.76 278.00,67.00 278.00,64.32 C278.00,62.54 278.69,60.50 279.53,59.79 C283.41,56.53 284.00,55.71 284.00,53.56 C284.00,52.30 284.90,50.13 286.00,48.73 C287.10,47.33 288.00,45.74 288.00,45.19 C288.00,43.42 296.75,39.00 300.24,39.00 C307.73,39.00 309.75,45.53 302.85,47.47 C300.84,48.04 298.26,49.36 297.10,50.40 C294.86,52.44 294.29,55.00 296.08,55.00 C296.68,55.00 296.98,55.56 296.74,56.25 C296.49,56.99 297.77,57.92 299.91,58.53 C303.14,59.46 303.50,59.91 303.50,63.03 C303.50,66.14 303.19,66.54 300.50,66.84 C298.86,67.03 297.17,67.70 296.77,68.34 C296.36,68.98 296.02,76.17 296.02,84.32 C296.01,92.58 295.54,99.99 294.96,101.07 ZM 574.64 103.70 C573.99,104.34 565.42,104.91 564.25,104.39 C563.29,103.96 563.00,96.39 563.00,71.42 L 563.00 39.00 L 565.50 38.83 C572.72,38.32 574.11,38.37 574.61,39.18 C575.16,40.06 575.18,103.15 574.64,103.70 ZM 235.26 93.36 C243.90,97.62 254.71,92.00 255.20,83.00 C255.73,73.29 251.24,67.86 242.13,67.20 C236.50,66.80 236.08,66.93 232.13,70.51 C228.24,74.02 228.00,74.55 228.00,79.75 C228.00,86.34 230.49,91.00 235.26,93.36 ZM 393.50 94.05 C397.07,95.52 403.39,95.06 406.36,93.10 C410.73,90.22 412.99,86.09 412.98,81.00 C412.96,71.73 407.23,66.56 397.71,67.23 C393.06,67.55 391.38,68.17 389.21,70.34 C386.75,72.79 386.50,73.74 386.50,80.44 C386.50,86.95 386.80,88.16 389.00,90.53 C390.38,92.01 392.40,93.59 393.50,94.05 ZM 515.91 92.72 C518.14,94.22 520.77,95.00 523.63,95.00 C527.38,95.00 528.57,94.42 532.48,90.67 C536.59,86.74 537.00,85.91 537.00,81.62 C537.00,72.24 532.01,67.00 523.08,67.00 C518.33,67.00 516.88,67.46 514.02,69.84 C510.90,72.45 510.59,73.22 510.27,79.09 C509.86,86.56 511.06,89.45 515.91,92.72 ZM 33.55 87.55 C28.56,92.53 20.00,89.23 20.00,82.32 C20.00,79.40 24.15,75.00 26.91,75.00 C30.18,75.00 33.70,77.06 34.89,79.66 C36.53,83.26 36.27,84.82 33.55,87.55 ZM 326.34 75.45 C326.83,76.73 328.97,77.00 338.47,77.00 C348.94,77.00 350.00,76.83 350.00,75.19 C350.00,72.65 345.02,68.15 341.40,67.43 C334.90,66.13 324.82,71.49 326.34,75.45 ZM 450.67 76.33 C451.03,76.70 456.22,77.00 462.20,77.00 C474.39,77.00 476.20,75.97 471.94,71.43 C466.78,65.94 457.05,65.78 452.56,71.11 C449.89,74.28 449.55,75.22 450.67,76.33 ZM 69.08 29.08 C65.62,32.53 63.22,32.75 59.63,29.93 C57.60,28.33 57.00,26.97 57.00,24.00 C57.00,16.83 64.78,13.50 69.55,18.65 C72.80,22.16 72.65,25.50 69.08,29.08 ZM 128.81 65.96 C126.08,68.51 120.87,68.62 118.67,66.18 C113.95,60.97 116.92,53.00 123.57,53.00 C130.37,53.00 133.75,61.36 128.81,65.96 ZM 90.78 124.44 C87.80,126.53 85.78,126.40 82.63,123.93 C79.46,121.43 79.26,118.21 82.07,114.63 C84.72,111.27 89.24,111.07 91.44,114.22 C93.77,117.55 93.44,122.58 90.78,124.44 ZM 86.40 33.86 C86.32,33.90 86.24,33.94 86.16,33.97 C84.76,34.61 84.02,34.95 83.36,34.84 C82.60,34.72 81.93,34.02 80.45,32.55 C77.48,29.57 77.32,26.68 80.00,24.00 C82.67,21.33 85.57,21.48 88.52,24.43 C90.62,26.52 90.81,27.26 89.92,29.79 C89.36,31.40 87.78,33.24 86.40,33.86 ZM 36.75 105.06 C32.71,108.43 27.00,107.08 27.00,102.76 C27.00,100.20 29.93,96.00 31.71,96.00 C33.04,96.00 39.00,101.48 39.00,102.70 C39.00,102.96 37.99,104.02 36.75,105.06 ZM 47.07 32.96 C44.49,34.34 43.90,34.26 41.17,32.16 C39.46,30.85 38.92,29.58 39.17,27.43 C39.45,24.96 40.11,24.35 43.32,23.56 C47.77,22.46 48.96,23.54 48.98,28.71 C49.00,30.88 48.37,32.27 47.07,32.96 ZM 122.78 44.44 C119.85,46.49 117.68,46.41 115.65,44.17 C112.15,40.30 114.56,36.00 120.23,36.00 C125.11,36.00 126.80,41.62 122.78,44.44 ZM 110.39 118.12 C108.48,120.23 107.48,120.34 104.27,118.79 C100.11,116.78 100.53,110.92 104.94,109.52 C109.54,108.06 113.64,114.53 110.39,118.12 ZM 123.46 83.66 C122.45,84.40 120.66,85.00 119.50,85.00 C118.34,85.00 116.55,84.40 115.54,83.66 C113.20,81.94 114.11,77.55 117.14,75.93 C121.78,73.44 127.63,80.60 123.46,83.66 ZM 36.49 64.25 C35.83,65.75 34.48,66.60 32.41,66.80 C29.30,67.10 27.87,66.07 26.64,62.62 C25.03,58.14 32.05,56.32 36.73,60.00 C38.13,61.10 38.87,62.00 38.37,62.00 C37.88,62.00 37.03,63.01 36.49,64.25 ZM 70.98 118.02 C68.48,120.52 65.80,120.54 63.57,118.08 C59.92,114.04 63.47,108.71 68.59,110.54 C72.37,111.89 73.52,115.48 70.98,118.02 ZM 124.99 106.02 C123.73,108.38 119.77,108.63 117.98,106.47 C116.11,104.23 118.25,100.00 121.24,100.00 C124.30,100.00 126.40,103.38 124.99,106.02 ZM 111.43 29.43 C109.61,31.25 109.12,31.30 106.75,29.92 C103.50,28.03 105.49,22.00 109.36,22.00 C110.41,22.00 113.00,25.21 113.00,26.50 C113.00,27.25 112.29,28.56 111.43,29.43 ZM 43.42 119.39 C41.22,120.24 41.19,120.22 40.07,118.14 C38.77,115.70 41.01,112.41 43.36,113.31 C45.46,114.11 45.50,118.59 43.42,119.39 ZM 32.83 40.25 C32.33,41.21 31.05,42.00 29.96,42.00 C28.45,42.00 28.00,41.32 28.00,39.00 C28.00,36.49 28.40,36.00 30.42,36.00 C33.18,36.00 34.14,37.70 32.83,40.25 ZM 100.82 39.25 C101.07,41.42 100.72,42.00 99.19,42.00 C96.70,42.00 94.60,39.49 95.38,37.44 C96.42,34.73 100.45,36.07 100.82,39.25 ZM 55.80 104.38 C55.61,105.70 54.65,106.62 53.25,106.82 C50.45,107.22 49.15,104.42 51.19,102.39 C53.19,100.38 56.19,101.68 55.80,104.38 ZM 111.80 94.38 C111.61,95.70 110.65,96.62 109.25,96.82 C106.28,97.24 105.02,94.19 107.43,92.42 C109.80,90.69 112.18,91.76 111.80,94.38 ZM 44.82 48.25 C44.49,50.59 40.71,51.96 39.59,50.15 C38.47,48.33 40.21,46.00 42.68,46.00 C44.66,46.00 45.08,46.44 44.82,48.25 Z" fill="rgb(10,190,198)"/>
<path d="M 90.39 127.04 C89.00,127.57 87.79,127.98 87.68,127.96 C87.58,127.94 86.07,127.30 84.33,126.54 C78.62,124.06 77.22,117.69 81.45,113.45 C86.12,108.79 93.95,110.96 95.56,117.37 C96.36,120.59 93.56,125.84 90.39,127.04 ZM 412.00 103.50 C412.00,102.82 411.75,102.38 411.25,102.19 C411.75,102.25 412.25,102.38 412.80,102.57 C414.28,103.11 417.07,103.31 418.98,103.02 C422.26,102.53 422.51,102.22 423.28,97.61 C423.73,94.92 423.96,81.07 423.80,66.82 C423.56,46.40 423.57,40.82 421.19,39.49 C420.30,38.99 419.07,39.08 417.38,39.21 C417.25,39.22 417.13,39.23 417.00,39.24 L 413.50 39.50 L 413.00 49.67 C412.73,55.27 412.23,60.11 411.90,60.44 C411.83,60.51 411.70,60.53 411.52,60.51 L 411.78 49.59 L 412.06 38.00 L 425.00 38.00 L 425.00 105.00 L 418.50 105.00 C413.39,105.00 412.00,104.68 412.00,103.50 ZM 35.70 68.50 C32.87,70.48 31.77,70.40 28.69,67.97 C25.42,65.40 24.56,62.69 26.09,59.79 C27.71,56.72 28.91,56.03 32.73,56.02 C38.93,55.99 41.02,64.77 35.70,68.50 ZM 111.66 119.43 C107.84,123.25 103.11,122.10 100.92,116.82 C99.87,114.27 99.97,113.51 101.70,111.19 C102.91,109.56 104.85,108.38 106.60,108.21 C112.98,107.56 116.26,114.83 111.66,119.43 ZM 71.37 119.93 C68.38,122.28 67.33,122.41 64.50,120.81 C61.70,119.22 61.03,117.97 61.02,114.31 C60.99,108.65 67.93,105.93 72.00,110.00 C74.88,112.88 74.59,117.39 71.37,119.93 ZM 90.78 124.44 C93.44,122.58 93.77,117.55 91.44,114.22 C89.24,111.07 84.72,111.27 82.07,114.63 C79.26,118.21 79.46,121.43 82.63,123.93 C85.78,126.40 87.80,126.53 90.78,124.44 ZM 124.75 45.21 C121.10,49.85 113.00,46.84 113.00,40.85 C113.00,34.80 121.14,31.51 124.44,36.22 C126.32,38.90 126.46,43.03 124.75,45.21 ZM 49.00 33.00 C47.90,34.10 45.88,35.00 44.50,35.00 C41.16,35.00 38.00,31.67 38.00,28.15 C38.00,24.92 40.27,22.46 44.16,21.49 C49.81,20.08 53.39,28.61 49.00,33.00 ZM 123.78 85.44 C122.56,86.30 120.53,87.00 119.28,87.00 C114.00,87.00 110.93,79.18 114.83,75.65 C117.43,73.30 123.65,73.47 124.96,75.93 C126.76,79.29 126.20,83.75 123.78,85.44 ZM 296.60 69.00 C296.65,68.66 296.71,68.43 296.77,68.34 C297.17,67.70 298.86,67.03 300.50,66.84 C303.19,66.54 303.50,66.14 303.50,63.03 C303.50,59.91 303.14,59.46 299.91,58.53 C297.77,57.92 296.49,56.99 296.74,56.25 C296.98,55.56 296.68,55.00 296.08,55.00 C294.29,55.00 294.86,52.44 297.10,50.40 C298.26,49.36 300.84,48.04 302.85,47.47 C309.75,45.53 307.73,39.00 300.24,39.00 C296.75,39.00 288.00,43.42 288.00,45.19 C288.00,45.74 287.10,47.33 286.00,48.73 C284.90,50.13 284.00,52.30 284.00,53.56 C284.00,55.71 283.41,56.53 279.53,59.79 C278.75,60.45 278.10,62.25 278.01,63.92 C278.00,63.49 278.00,63.00 278.00,62.46 C278.00,57.39 278.13,57.12 280.75,56.82 C283.18,56.54 283.56,56.00 284.00,52.23 C284.60,47.07 288.87,41.37 293.59,39.40 C295.43,38.63 299.43,38.00 302.47,38.00 L 308.00 38.00 L 308.00 49.00 L 304.15 49.00 C299.86,49.00 297.00,51.33 297.00,54.83 C297.00,56.70 297.56,57.00 301.00,57.00 L 305.00 57.00 L 305.00 69.00 ZM 535.10 59.34 C535.71,59.08 536.00,58.45 536.00,57.44 C536.00,56.33 537.51,56.00 542.50,56.00 L 549.00 56.00 L 549.00 105.00 L 542.50 105.00 C537.39,105.00 536.00,104.68 536.00,103.50 C536.00,102.67 535.67,102.20 535.00,102.10 C536.55,101.93 537.83,102.23 538.61,103.01 C540.14,104.54 545.92,103.01 547.13,100.76 C548.65,97.92 547.90,60.49 546.29,58.89 C544.47,57.07 540.05,56.92 536.87,58.57 C536.17,58.93 535.61,59.19 535.10,59.34 ZM 252.83 102.10 C254.30,101.96 255.66,102.28 257.11,103.06 C259.61,104.40 266.00,102.50 266.00,100.42 C266.00,99.64 266.45,99.00 267.00,99.00 C267.63,99.00 268.00,92.67 268.00,82.00 C268.00,72.06 267.61,65.00 267.06,65.00 C266.54,65.00 265.98,63.31 265.81,61.25 C265.52,57.80 265.23,57.47 262.14,57.18 C259.81,56.96 258.12,57.48 256.61,58.90 L 254.43 60.95 L 254.00 60.73 L 254.00 58.36 C254.00,56.10 254.31,56.00 261.00,56.00 L 268.00 56.00 L 268.00 105.00 L 261.47 105.00 C256.59,105.00 254.79,104.62 254.36,103.50 C254.03,102.65 253.57,102.18 252.83,102.10 ZM 47.07 32.96 C48.37,32.27 49.00,30.88 48.98,28.71 C48.96,23.54 47.77,22.46 43.32,23.56 C40.11,24.35 39.45,24.96 39.17,27.43 C38.92,29.58 39.46,30.85 41.17,32.16 C43.90,34.26 44.49,34.34 47.07,32.96 ZM 122.78 44.44 C126.80,41.62 125.11,36.00 120.23,36.00 C114.56,36.00 112.15,40.30 115.65,44.17 C117.68,46.41 119.85,46.49 122.78,44.44 ZM 110.39 118.12 C113.64,114.53 109.54,108.06 104.94,109.52 C100.53,110.92 100.11,116.78 104.27,118.79 C107.48,120.34 108.48,120.23 110.39,118.12 ZM 123.46 83.66 C127.63,80.60 121.78,73.44 117.14,75.93 C114.11,77.55 113.20,81.94 115.54,83.66 C116.55,84.40 118.34,85.00 119.50,85.00 C120.66,85.00 122.45,84.40 123.46,83.66 ZM 36.49 64.25 C37.03,63.01 37.88,62.00 38.37,62.00 C38.87,62.00 38.13,61.10 36.73,60.00 C32.05,56.32 25.03,58.14 26.64,62.62 C27.87,66.07 29.30,67.10 32.41,66.80 C34.48,66.60 35.83,65.75 36.49,64.25 ZM 70.98 118.02 C73.52,115.48 72.37,111.89 68.59,110.54 C63.47,108.71 59.92,114.04 63.57,118.08 C65.80,120.54 68.48,120.52 70.98,118.02 ZM 294.96 101.07 C295.49,100.09 295.91,93.97 296.00,86.72 L 296.00 105.00 L 283.00 105.00 L 283.00 69.45 L 284.00 69.83 L 284.00 85.83 C284.00,86.33 284.00,86.81 284.00,87.28 C284.00,97.56 284.00,101.03 285.65,102.24 C286.56,102.91 287.99,102.87 290.21,102.92 C292.92,102.98 294.21,102.47 294.96,101.07 ZM 56.43 107.43 C55.56,108.29 54.21,109.00 53.43,109.00 C51.80,109.00 48.00,105.50 48.00,104.00 C48.00,102.50 51.80,99.00 53.43,99.00 C55.44,99.00 58.00,101.80 58.00,104.00 C58.00,105.02 57.29,106.56 56.43,107.43 ZM 179.61 69.14 C179.85,68.87 180.12,68.59 180.44,68.29 C183.35,65.59 188.08,65.30 193.33,67.49 C196.73,68.91 197.04,68.87 199.62,66.65 C203.13,63.63 202.32,61.47 196.76,59.01 C191.87,56.86 186.74,55.98 181.83,56.42 C186.88,55.71 192.27,55.85 196.10,57.15 C199.80,58.41 205.01,61.73 204.99,62.82 C204.98,63.19 203.51,65.18 201.74,67.23 L 198.50 70.95 L 193.00 69.01 C186.13,66.58 182.82,66.51 180.06,68.75 C179.90,68.88 179.75,69.01 179.61,69.14 ZM 32.78 42.44 C30.19,44.25 30.06,44.27 27.75,42.92 C25.74,41.75 25.40,37.00 27.20,35.20 C27.86,34.54 29.34,34.00 30.50,34.00 C35.13,34.00 36.67,39.71 32.78,42.44 ZM 101.07 42.96 C100.96,43.02 100.86,43.07 100.77,43.12 C99.82,43.64 99.31,43.91 98.82,43.89 C98.21,43.87 97.61,43.42 96.22,42.44 C92.33,39.71 93.87,34.00 98.50,34.00 C99.65,34.00 101.14,34.54 101.80,35.20 C103.70,37.10 103.26,41.79 101.07,42.96 ZM 113.07 96.87 C111.62,99.57 107.88,99.63 105.50,97.00 C102.80,94.02 104.82,90.00 109.00,90.00 C112.79,90.00 114.87,93.51 113.07,96.87 ZM 45.80 119.80 C45.14,120.46 43.65,121.00 42.50,121.00 C39.82,121.00 38.00,119.18 38.00,116.50 C38.00,113.82 39.82,112.00 42.50,112.00 C46.49,112.00 48.60,117.00 45.80,119.80 ZM 45.95 51.56 C43.32,54.72 38.00,52.62 38.00,48.42 C38.00,43.22 46.23,42.18 46.82,47.31 C47.00,48.86 46.61,50.77 45.95,51.56 ZM 189.05 94.50 C185.68,95.18 180.95,94.88 176.00,93.41 C170.69,91.83 170.63,91.84 168.85,94.16 C167.85,95.45 167.04,97.18 167.03,98.00 C167.02,99.42 173.13,103.63 177.22,105.06 C176.55,104.91 175.91,104.74 175.32,104.56 C170.85,103.16 163.98,99.27 164.04,98.17 C164.06,97.80 165.58,95.74 167.42,93.59 L 170.77 89.68 L 176.14 91.76 C182.14,94.09 186.19,94.98 189.05,94.50 ZM 36.75 105.06 C37.51,104.42 38.18,103.78 38.59,103.32 C38.34,104.80 37.61,106.25 36.43,107.43 C35.56,108.29 33.74,109.00 32.38,109.00 C29.39,109.00 25.00,104.87 25.00,102.05 C25.00,98.81 28.03,96.56 31.24,96.09 C29.45,96.70 27.00,100.42 27.00,102.76 C27.00,107.08 32.71,108.43 36.75,105.06 ZM 43.42 119.39 C45.50,118.59 45.46,114.11 43.36,113.31 C41.01,112.41 38.77,115.70 40.07,118.14 C41.19,120.22 41.22,120.24 43.42,119.39 ZM 32.83 40.25 C34.14,37.70 33.18,36.00 30.42,36.00 C28.40,36.00 28.00,36.49 28.00,39.00 C28.00,41.32 28.45,42.00 29.96,42.00 C31.05,42.00 32.33,41.21 32.83,40.25 ZM 100.82 39.25 C100.45,36.07 96.42,34.73 95.38,37.44 C94.60,39.49 96.70,42.00 99.19,42.00 C100.72,42.00 101.07,41.42 100.82,39.25 ZM 55.80 104.38 C56.19,101.68 53.19,100.38 51.19,102.39 C49.15,104.42 50.45,107.22 53.25,106.82 C54.65,106.62 55.61,105.70 55.80,104.38 ZM 111.80 94.38 C112.18,91.76 109.80,90.69 107.43,92.42 C105.02,94.19 106.28,97.24 109.25,96.82 C110.65,96.62 111.61,95.70 111.80,94.38 ZM 99.67 103.42 C98.90,105.43 96.62,105.45 94.96,103.45 C93.90,102.17 93.96,101.61 95.34,100.24 C96.88,98.69 97.12,98.69 98.64,100.21 C99.54,101.11 100.00,102.55 99.67,103.42 ZM 44.82 48.25 C45.08,46.44 44.66,46.00 42.68,46.00 C40.21,46.00 38.47,48.33 39.59,50.15 C40.71,51.96 44.49,50.59 44.82,48.25 ZM 108.50 50.51 C108.50,53.09 104.52,53.80 103.59,51.39 C103.23,50.44 103.35,49.25 103.86,48.74 C105.41,47.19 108.50,48.37 108.50,50.51 ZM 24.50 50.51 C24.50,51.78 23.73,52.61 22.38,52.80 C20.06,53.13 18.73,51.06 19.96,49.06 C21.14,47.15 24.50,48.23 24.50,50.51 ZM 56.80 124.62 C57.13,126.94 55.06,128.27 53.06,127.04 C51.15,125.86 52.23,122.50 54.51,122.50 C55.78,122.50 56.61,123.27 56.80,124.62 ZM 99.50 18.50 C99.50,20.98 96.74,21.60 95.00,19.50 C94.08,18.39 94.00,17.60 94.74,16.86 C96.38,15.22 99.50,16.29 99.50,18.50 ZM 56.50 40.93 C56.50,43.83 54.77,44.63 53.04,42.55 C51.40,40.57 52.50,37.76 54.75,38.19 C55.84,38.40 56.50,39.44 56.50,40.93 ZM 131.82 92.24 C131.45,94.85 128.26,95.85 127.41,93.62 C126.60,91.51 127.74,90.00 130.13,90.00 C131.64,90.00 132.06,90.56 131.82,92.24 ZM 47.82 92.24 C47.45,94.85 44.26,95.85 43.41,93.62 C42.60,91.51 43.74,90.00 46.13,90.00 C47.64,90.00 48.06,90.56 47.82,92.24 ZM 31.86 96.02 C34.11,95.86 36.34,96.59 37.59,98.49 C38.29,99.56 38.65,100.75 38.68,101.97 C37.48,100.14 33.21,96.32 31.86,96.02 ZM 21.00 59.44 C21.00,60.23 20.60,61.13 20.11,61.43 C19.01,62.11 16.77,59.56 17.68,58.66 C18.87,57.47 21.00,57.97 21.00,59.44 ZM 90.00 15.44 C90.00,16.23 89.60,17.13 89.11,17.43 C88.01,18.11 85.77,15.56 86.68,14.66 C87.87,13.47 90.00,13.97 90.00,15.44 ZM 89.20 103.80 C90.82,105.42 89.01,107.24 87.00,106.00 C85.82,105.27 85.77,104.83 86.76,103.84 C87.72,102.88 88.27,102.87 89.20,103.80 ZM 65.00 38.00 C65.00,40.11 63.55,40.69 62.50,39.00 C61.77,37.82 62.72,36.00 64.06,36.00 C64.58,36.00 65.00,36.90 65.00,38.00 ZM 110.75 59.75 C110.99,60.48 110.31,61.00 109.08,61.00 C107.85,61.00 107.00,60.35 107.00,59.43 C107.00,57.59 110.12,57.86 110.75,59.75 ZM 65.00 127.50 C65.00,128.32 64.32,129.00 63.50,129.00 C62.67,129.00 62.00,128.32 62.00,127.50 C62.00,126.68 62.67,126.00 63.50,126.00 C64.32,126.00 65.00,126.68 65.00,127.50 ZM 134.00 83.50 C134.00,84.32 133.32,85.00 132.50,85.00 C131.68,85.00 131.00,84.32 131.00,83.50 C131.00,82.68 131.68,82.00 132.50,82.00 C133.32,82.00 134.00,82.68 134.00,83.50 ZM 44.30 83.51 C43.96,85.25 41.00,85.24 41.00,83.50 C41.00,82.47 41.66,81.98 42.75,82.19 C43.71,82.38 44.41,82.97 44.30,83.51 ZM 387.81 103.93 C385.32,102.92 383.03,101.51 381.18,99.76 C378.83,97.53 377.06,95.09 375.84,92.34 C378.40,97.70 382.79,101.72 387.81,103.93 ZM 377.75 65.45 C380.11,61.86 383.42,59.22 387.54,57.68 C383.68,59.25 380.17,62.05 377.75,65.45 ZM 174.06 58.36 C170.97,59.72 168.65,61.65 167.21,64.00 C167.73,63.05 168.39,62.15 169.17,61.32 C170.24,60.18 171.96,59.18 174.06,58.36 ZM 194.00 90.50 C193.96,92.25 192.52,93.51 190.19,94.21 C190.69,94.04 191.16,93.82 191.58,93.54 C192.89,92.68 193.97,91.32 194.00,90.50 ZM 170.48 80.84 C173.07,82.89 176.74,84.38 181.64,85.42 C175.93,84.21 172.95,82.99 170.48,80.84 ZM 194.34 104.92 C191.67,105.66 188.01,105.97 184.38,105.87 C188.01,105.89 192.01,105.57 194.34,104.92 ZM 397.79 56.13 C398.51,56.15 399.25,56.20 399.99,56.27 C403.40,56.57 405.99,57.28 407.84,58.39 C405.57,57.07 401.73,56.27 397.79,56.13 ZM 278.19 66.31 C278.44,67.23 278.97,67.77 280.01,68.28 C278.93,67.95 278.42,67.54 278.19,66.31 ZM 405.17 104.05 C403.55,104.90 401.66,105.43 399.65,105.67 C401.54,105.40 403.40,104.87 405.17,104.05 ZM 249.33 58.36 L 249.55 58.47 C245.77,56.56 241.50,55.78 237.33,56.02 C241.46,55.76 245.67,56.51 249.33,58.36 ZM 179.58 72.67 C181.10,73.84 184.34,74.93 189.44,76.04 C184.19,74.89 181.00,73.86 179.58,72.67 ZM 534.47 59.47 C533.41,59.58 532.38,59.14 530.35,58.05 C532.18,59.03 533.54,59.50 534.47,59.47 ZM 194.00 90.44 C193.99,89.26 192.99,88.41 189.89,87.44 C192.99,88.41 194.00,89.26 194.00,90.42 Z" fill="rgb(48,177,180)"/>
<path d="M 0.00 70.00 L 0.00 0.00 L 300.00 0.00 L 600.00 0.00 L 600.00 70.00 L 600.00 140.00 L 300.00 140.00 L 0.00 140.00 L 0.00 70.00 ZM 65.00 127.50 C65.00,126.68 64.32,126.00 63.50,126.00 C62.67,126.00 62.00,126.68 62.00,127.50 C62.00,128.32 62.67,129.00 63.50,129.00 C64.32,129.00 65.00,128.32 65.00,127.50 ZM 56.80 124.62 C56.61,123.27 55.78,122.50 54.51,122.50 C52.23,122.50 51.15,125.86 53.06,127.04 C55.06,128.27 57.13,126.94 56.80,124.62 ZM 90.39 127.04 C93.56,125.84 96.36,120.59 95.56,117.37 C93.95,110.96 86.12,108.79 81.45,113.45 C77.22,117.69 78.62,124.06 84.33,126.54 C86.07,127.30 87.58,127.94 87.68,127.96 C87.79,127.98 89.00,127.57 90.39,127.04 ZM 71.37 119.93 C74.59,117.39 74.88,112.88 72.00,110.00 C67.93,105.93 60.99,108.65 61.02,114.31 C61.03,117.97 61.70,119.22 64.50,120.81 C67.33,122.41 68.38,122.28 71.37,119.93 ZM 111.66 119.43 C116.26,114.83 112.98,107.56 106.60,108.21 C104.85,108.38 102.91,109.56 101.70,111.19 C99.97,113.51 99.87,114.27 100.92,116.82 C103.11,122.10 107.84,123.25 111.66,119.43 ZM 45.80 119.80 C48.60,117.00 46.49,112.00 42.50,112.00 C39.82,112.00 38.00,113.82 38.00,116.50 C38.00,119.18 39.82,121.00 42.50,121.00 C43.65,121.00 45.14,120.46 45.80,119.80 ZM 36.43 107.43 C38.93,104.93 39.40,101.27 37.59,98.49 C34.44,93.68 25.00,96.35 25.00,102.05 C25.00,104.87 29.39,109.00 32.38,109.00 C33.74,109.00 35.56,108.29 36.43,107.43 ZM 56.43 107.43 C57.29,106.56 58.00,105.02 58.00,104.00 C58.00,101.80 55.44,99.00 53.43,99.00 C51.80,99.00 48.00,102.50 48.00,104.00 C48.00,105.50 51.80,109.00 53.43,109.00 C54.21,109.00 55.56,108.29 56.43,107.43 ZM 124.99 106.02 C126.40,103.38 124.30,100.00 121.24,100.00 C118.25,100.00 116.11,104.23 117.98,106.47 C119.77,108.63 123.73,108.38 124.99,106.02 ZM 89.20 103.80 C88.27,102.87 87.72,102.88 86.76,103.84 C85.77,104.83 85.82,105.27 87.00,106.00 C89.01,107.24 90.82,105.42 89.20,103.80 ZM 350.11 104.04 C351.14,103.98 358.45,97.93 359.28,96.45 C359.83,95.48 358.85,94.30 356.01,92.50 L 351.95 89.94 L 347.64 92.47 C340.53,96.64 329.88,95.39 327.03,90.06 C324.93,86.13 325.47,86.00 343.43,86.00 C364.25,86.00 364.61,85.84 363.59,77.21 C362.85,70.87 362.04,69.16 357.34,63.95 C353.27,59.44 345.11,56.00 338.50,56.00 C329.21,56.00 319.27,61.71 315.34,69.31 C312.87,74.08 312.44,83.81 314.43,89.80 C318.19,101.11 331.78,108.27 344.00,105.37 C347.02,104.66 349.78,104.06 350.11,104.04 ZM 194.34 104.92 C203.89,102.27 209.37,91.56 204.88,84.31 C201.92,79.52 199.56,78.25 189.44,76.04 C179.19,73.80 176.46,71.68 180.06,68.75 C182.82,66.51 186.13,66.58 193.00,69.01 L 198.50 70.95 L 201.74 67.23 C203.51,65.18 204.98,63.19 204.99,62.82 C205.01,61.73 199.80,58.41 196.10,57.15 C188.15,54.46 173.48,56.73 169.17,61.32 C163.92,66.90 164.48,75.58 170.41,80.78 C172.89,82.96 175.87,84.19 181.64,85.42 C191.42,87.50 194.00,88.55 194.00,90.46 C194.00,91.28 192.91,92.67 191.58,93.54 C188.72,95.41 184.18,94.89 176.14,91.76 L 170.77 89.68 L 167.42 93.59 C165.58,95.74 164.06,97.80 164.04,98.17 C163.98,99.27 170.85,103.16 175.32,104.56 C180.49,106.17 189.23,106.34 194.34,104.92 ZM 248.62 103.51 C252.26,101.62 253.64,101.61 254.36,103.50 C254.79,104.62 256.59,105.00 261.47,105.00 L 268.00 105.00 L 268.00 80.50 L 268.00 56.00 L 261.00 56.00 C254.31,56.00 254.00,56.10 254.00,58.36 L 254.00 60.73 L 249.33 58.36 C240.46,53.87 228.35,55.88 222.16,62.86 C218.08,67.45 216.68,71.28 216.21,79.04 C215.62,89.14 218.08,95.12 225.01,100.41 C227.71,102.47 231.17,104.55 232.71,105.04 C236.39,106.22 245.02,105.39 248.62,103.51 ZM 405.26 104.00 C409.70,101.62 412.00,101.45 412.00,103.50 C412.00,104.68 413.39,105.00 418.50,105.00 L 425.00 105.00 L 425.00 71.50 L 425.00 38.00 L 418.53 38.00 L 412.06 38.00 L 411.78 49.59 L 411.50 61.19 L 408.72 59.00 C406.85,57.53 403.98,56.63 399.99,56.27 C384.01,54.82 373.85,64.17 373.68,80.50 C373.60,88.78 375.93,94.78 381.18,99.76 C387.36,105.62 398.55,107.60 405.26,104.00 ZM 474.17 103.45 C478.31,101.36 483.00,97.05 483.00,95.33 C483.00,94.62 481.30,93.17 479.22,92.11 L 475.44 90.18 L 471.47 92.59 C463.24,97.57 450.00,94.17 450.00,87.07 C450.00,86.36 455.32,86.00 465.93,86.00 C474.70,86.00 483.01,85.57 484.41,85.04 C487.81,83.74 488.51,80.24 486.63,73.82 C483.67,63.73 475.42,57.28 464.19,56.30 C453.23,55.34 440.93,62.61 438.22,71.65 C436.42,77.68 436.73,86.82 438.90,91.50 C441.45,96.99 447.70,102.72 453.05,104.47 C458.61,106.29 469.59,105.76 474.17,103.45 ZM 530.50 103.60 C534.26,101.61 536.00,101.57 536.00,103.50 C536.00,104.68 537.39,105.00 542.50,105.00 L 549.00 105.00 L 549.00 80.50 L 549.00 56.00 L 542.50 56.00 C537.51,56.00 536.00,56.33 536.00,57.44 C536.00,59.94 534.22,60.12 530.31,58.03 C522.64,53.91 511.33,55.79 504.56,62.31 C494.49,72.00 494.64,89.11 504.88,99.04 C507.46,101.54 511.12,104.11 513.03,104.75 C517.49,106.25 526.65,105.65 530.50,103.60 ZM 99.67 103.42 C100.00,102.55 99.54,101.11 98.64,100.21 C97.12,98.69 96.88,98.69 95.34,100.24 C93.96,101.61 93.90,102.17 94.96,103.45 C96.62,105.45 98.90,105.43 99.67,103.42 ZM 296.00 87.00 L 296.00 69.00 L 300.50 69.00 L 305.00 69.00 L 305.00 63.00 L 305.00 57.00 L 301.00 57.00 C297.56,57.00 297.00,56.70 297.00,54.83 C297.00,51.33 299.86,49.00 304.15,49.00 L 308.00 49.00 L 308.00 43.50 L 308.00 38.00 L 302.47 38.00 C299.43,38.00 295.43,38.63 293.59,39.40 C288.87,41.37 284.60,47.07 284.00,52.23 C283.56,56.00 283.18,56.54 280.75,56.82 C278.13,57.12 278.00,57.39 278.00,62.46 C278.00,67.30 278.22,67.84 280.50,68.41 L 283.00 69.04 L 283.00 87.02 L 283.00 105.00 L 289.50 105.00 L 296.00 105.00 L 296.00 87.00 ZM 574.64 103.70 C575.18,103.15 575.16,40.06 574.61,39.18 C574.11,38.37 572.72,38.32 565.50,38.83 L 563.00 39.00 L 563.00 71.42 C563.00,96.39 563.29,103.96 564.25,104.39 C565.42,104.91 573.99,104.34 574.64,103.70 ZM 113.07 96.87 C114.87,93.51 112.79,90.00 109.00,90.00 C104.82,90.00 102.80,94.02 105.50,97.00 C107.88,99.63 111.62,99.57 113.07,96.87 ZM 47.82 92.24 C48.06,90.56 47.64,90.00 46.13,90.00 C43.74,90.00 42.60,91.51 43.41,93.62 C44.26,95.85 47.45,94.85 47.82,92.24 ZM 131.82 92.24 C132.06,90.56 131.64,90.00 130.13,90.00 C127.74,90.00 126.60,91.51 127.41,93.62 C128.26,95.85 131.45,94.85 131.82,92.24 ZM 33.55 87.55 C36.27,84.82 36.53,83.26 34.89,79.66 C33.70,77.06 30.18,75.00 26.91,75.00 C24.15,75.00 20.00,79.40 20.00,82.32 C20.00,89.23 28.56,92.53 33.55,87.55 ZM 123.78 85.44 C126.20,83.75 126.76,79.29 124.96,75.93 C123.65,73.47 117.43,73.30 114.83,75.65 C110.93,79.18 114.00,87.00 119.28,87.00 C120.53,87.00 122.56,86.30 123.78,85.44 ZM 44.30 83.51 C44.41,82.97 43.71,82.38 42.75,82.19 C41.66,81.98 41.00,82.47 41.00,83.50 C41.00,85.24 43.96,85.25 44.30,83.51 ZM 134.00 83.50 C134.00,82.68 133.32,82.00 132.50,82.00 C131.68,82.00 131.00,82.68 131.00,83.50 C131.00,84.32 131.68,85.00 132.50,85.00 C133.32,85.00 134.00,84.32 134.00,83.50 ZM 35.70 68.50 C41.02,64.77 38.93,55.99 32.73,56.02 C28.91,56.03 27.71,56.72 26.09,59.79 C24.56,62.69 25.42,65.40 28.69,67.97 C31.77,70.40 32.87,70.48 35.70,68.50 ZM 128.81 65.96 C133.75,61.36 130.37,53.00 123.57,53.00 C116.92,53.00 113.95,60.97 118.67,66.18 C120.87,68.62 126.08,68.51 128.81,65.96 ZM 21.00 59.44 C21.00,57.97 18.87,57.47 17.68,58.66 C16.77,59.56 19.01,62.11 20.11,61.43 C20.60,61.13 21.00,60.23 21.00,59.44 ZM 110.75 59.75 C110.12,57.86 107.00,57.59 107.00,59.43 C107.00,60.35 107.85,61.00 109.08,61.00 C110.31,61.00 110.99,60.48 110.75,59.75 ZM 24.50 50.51 C24.50,48.23 21.14,47.15 19.96,49.06 C18.73,51.06 20.06,53.13 22.38,52.80 C23.73,52.61 24.50,51.78 24.50,50.51 ZM 45.95 51.56 C46.61,50.77 47.00,48.86 46.82,47.31 C46.23,42.18 38.00,43.22 38.00,48.42 C38.00,52.62 43.32,54.72 45.95,51.56 ZM 108.50 50.51 C108.50,48.37 105.41,47.19 103.86,48.74 C103.35,49.25 103.23,50.44 103.59,51.39 C104.52,53.80 108.50,53.09 108.50,50.51 ZM 124.75 45.21 C126.46,43.03 126.32,38.90 124.44,36.22 C121.14,31.51 113.00,34.80 113.00,40.85 C113.00,46.84 121.10,49.85 124.75,45.21 ZM 32.78 42.44 C36.67,39.71 35.13,34.00 30.50,34.00 C29.34,34.00 27.86,34.54 27.20,35.20 C25.40,37.00 25.74,41.75 27.75,42.92 C30.06,44.27 30.19,44.25 32.78,42.44 ZM 56.50 40.93 C56.50,39.44 55.84,38.40 54.75,38.19 C52.50,37.76 51.40,40.57 53.04,42.55 C54.77,44.63 56.50,43.83 56.50,40.93 ZM 101.07 42.96 C103.26,41.79 103.70,37.10 101.80,35.20 C101.14,34.54 99.65,34.00 98.50,34.00 C93.87,34.00 92.33,39.71 96.22,42.44 C98.86,44.29 98.63,44.27 101.07,42.96 ZM 65.00 38.00 C65.00,36.90 64.58,36.00 64.06,36.00 C62.72,36.00 61.77,37.82 62.50,39.00 C63.55,40.69 65.00,40.11 65.00,38.00 ZM 49.00 33.00 C53.39,28.61 49.81,20.08 44.16,21.49 C40.27,22.46 38.00,24.92 38.00,28.15 C38.00,31.67 41.16,35.00 44.50,35.00 C45.88,35.00 47.90,34.10 49.00,33.00 ZM 86.40 33.86 C87.78,33.24 89.36,31.40 89.92,29.79 C90.81,27.26 90.62,26.52 88.52,24.43 C85.57,21.48 82.67,21.33 80.00,24.00 C77.32,26.68 77.48,29.57 80.45,32.55 C83.29,35.38 83.14,35.35 86.40,33.86 ZM 69.08 29.08 C72.65,25.50 72.80,22.16 69.55,18.65 C64.78,13.50 57.00,16.83 57.00,24.00 C57.00,26.97 57.60,28.33 59.63,29.93 C63.22,32.75 65.62,32.53 69.08,29.08 ZM 111.43 29.43 C112.29,28.56 113.00,27.25 113.00,26.50 C113.00,25.21 110.41,22.00 109.36,22.00 C105.49,22.00 103.50,28.03 106.75,29.92 C109.12,31.30 109.61,31.25 111.43,29.43 ZM 99.50 18.50 C99.50,16.29 96.38,15.22 94.74,16.86 C94.00,17.60 94.08,18.39 95.00,19.50 C96.74,21.60 99.50,20.98 99.50,18.50 ZM 90.00 15.44 C90.00,13.97 87.87,13.47 86.68,14.66 C85.77,15.56 88.01,18.11 89.11,17.43 C89.60,17.13 90.00,16.23 90.00,15.44 ZM 326.34 75.45 C324.82,71.49 334.90,66.13 341.40,67.43 C345.02,68.15 350.00,72.65 350.00,75.19 C350.00,76.83 348.94,77.00 338.47,77.00 C328.97,77.00 326.83,76.73 326.34,75.45 ZM 235.26 93.36 C230.49,91.00 228.00,86.34 228.00,79.75 C228.00,74.55 228.24,74.02 232.13,70.51 C236.08,66.93 236.50,66.80 242.13,67.20 C251.24,67.86 255.73,73.29 255.20,83.00 C254.71,92.00 243.90,97.62 235.26,93.36 ZM 393.50 94.05 C392.40,93.59 390.38,92.01 389.00,90.53 C386.80,88.16 386.50,86.95 386.50,80.44 C386.50,73.74 386.75,72.79 389.21,70.34 C391.38,68.17 393.06,67.55 397.71,67.23 C407.23,66.56 412.96,71.73 412.98,81.00 C412.99,86.09 410.73,90.22 406.36,93.10 C403.39,95.06 397.07,95.52 393.50,94.05 ZM 450.67 76.33 C449.55,75.22 449.89,74.28 452.56,71.11 C457.05,65.78 466.78,65.94 471.94,71.43 C476.20,75.97 474.39,77.00 462.20,77.00 C456.22,77.00 451.03,76.70 450.67,76.33 ZM 515.91 92.72 C511.06,89.45 509.86,86.56 510.27,79.09 C510.59,73.22 510.90,72.45 514.02,69.84 C516.88,67.46 518.33,67.00 523.08,67.00 C532.01,67.00 537.00,72.24 537.00,81.62 C537.00,85.91 536.59,86.74 532.48,90.67 C528.57,94.42 527.38,95.00 523.63,95.00 C520.77,95.00 518.14,94.22 515.91,92.72 Z" fill="rgb(252,254,254)"/>
</g>
</svg>